<svg width="32" height="32" viewBox="0 0 32 32" fill="none" xmlns="http://www.w3.org/2000/svg">
<path fill-rule="evenodd" clip-rule="evenodd" d="M11.375 0.0573699C6.01495 0.546879 4.51071 1.02264 2.74249 2.78742C0.49991 5.02596 0 7.44026 0 16.0294C0 24.6186 0.49991 27.0329 2.74249 29.2714C4.97531 31.5 7.40548 32.0047 15.8832 32C24.8119 31.9952 26.9876 31.5282 29.3331 29.1132C31.5124 26.8696 32 24.4776 32 16.0294C32 7.47201 31.5181 5.17947 29.2312 2.85542C27.8697 1.47165 26.3337 0.753883 23.9809 0.401876C22.1566 0.128621 13.2571 -0.114383 11.375 0.0573699Z" fill="#06D4AE"/>
<path d="M23.3477 11.4258C23.2749 11.3609 23.2049 11.3429 23.1471 11.3406C23.0892 11.3382 20.4246 11.3386 20.2901 11.3503C20.1557 11.362 20.0991 11.4087 20.0615 11.4555C20.0239 11.5024 20.0013 11.5873 20.0021 11.6551C20.0029 11.7228 19.9908 17.0033 19.9908 17.0033H17.7938C17.7938 17.0033 17.8003 6.03701 17.8003 5.98634C17.7996 5.91141 17.7719 5.8393 17.7223 5.7833C17.6703 5.72274 17.5783 5.6832 17.5175 5.6757C17.4567 5.6682 14.7732 5.67138 14.6656 5.67275C14.558 5.67411 14.4762 5.73853 14.4335 5.78102C14.3776 5.84442 14.3593 5.93725 14.36 5.98679C14.3607 6.03633 14.36 14.173 14.36 14.173H12.1617C12.1617 14.173 12.1679 11.7529 12.1679 11.6916C12.1679 11.6304 12.1565 11.5293 12.0887 11.4505C12.0594 11.4172 12.0233 11.3905 11.983 11.3722C11.9426 11.3539 11.8988 11.3444 11.8546 11.3443C11.7883 11.3466 9.04838 11.3436 9.01267 11.3436C8.92994 11.3485 8.85189 11.3839 8.79341 11.4429C8.70955 11.526 8.70898 11.674 8.70898 11.674C8.70898 11.674 8.72198 14.4896 8.72243 14.4996C8.72302 14.5526 8.73731 14.6044 8.76391 14.6501C8.79126 14.6943 8.80912 14.7062 8.83658 14.7348C8.86405 14.7635 11.5843 17.5225 11.6563 17.5737C11.7618 17.6488 11.8025 17.6402 11.8524 17.6419C11.9024 17.6436 14.3595 17.6411 14.3595 17.6411L14.3616 25.8195C14.3601 25.8931 14.3845 25.9649 14.4306 26.0222C14.5001 26.1078 14.5896 26.1472 14.6508 26.1444C14.7119 26.1417 17.3892 26.1434 17.4989 26.136C17.6086 26.1286 17.666 26.0965 17.7203 26.0352C17.7745 25.974 17.7942 25.9274 17.7994 25.8279C17.8046 25.7283 17.8055 20.4723 17.8055 20.4723C17.8055 20.4723 20.2452 20.4837 20.3259 20.4754C20.4066 20.4671 20.4607 20.4323 20.5111 20.3912C20.5615 20.35 20.6241 20.256 20.6227 20.1526C20.6266 20.0724 20.6177 17.6351 20.6177 17.6351C20.6177 17.6351 23.0625 17.6495 23.1756 17.6351C23.2886 17.6207 23.3381 17.5719 23.3756 17.5244C23.4131 17.4769 23.4361 17.3821 23.4361 17.3247V11.6064C23.4365 11.5422 23.3846 11.4599 23.3477 11.4258ZM11.5326 16.5463L9.34664 14.35L9.34393 11.9655H11.5326V16.5463ZM14.3592 17.009L12.1666 17.0023L12.1645 14.8024H14.3593L14.3592 17.009ZM14.9808 6.29868H17.1777V11.5234L14.9804 13.7276L14.9808 6.29868ZM14.9808 14.627L17.1781 12.421V17.0077H14.9808V14.627ZM14.9854 25.5083L14.9795 18.0738L17.18 20.2894L17.1807 25.5078L14.9854 25.5083ZM19.9982 19.8437L17.6186 19.8459L15.4224 17.6368H19.9982V19.8437ZM20.6207 17.0068V15.2504L22.3725 17.0071L20.6207 17.0068ZM22.8171 16.5637L20.6195 14.3588V11.9683L22.8189 11.9665L22.8171 16.5637Z" fill="#3F3F3F"/>
</svg>
